<svg t="1767351651992" class="icon" viewBox="0 0 1024 1024" version="1.1" xmlns="http://www.w3.org/2000/svg" p-id="29511" width="200" height="200"><path d="M790.253124 485.48137c22.423089 155.937735-76.177068 404.741869-277.984866 456.755243-201.807798-52.013375-300.407954-300.817508-277.984866-456.755243s277.984866-152.251748 277.984866-152.251748 255.561777-3.685987 277.984866 152.251748z" fill="#F95428" p-id="29512"></path><path d="M359.504567 485.48137c15.255891-105.972131 138.224519-138.224519 215.425473-148.053818-36.347929-4.607484-62.559393-4.19793-62.559394-4.19793s-255.561777-3.685987-277.984865 152.251748 76.177068 404.741869 277.984865 456.755243c22.115923-5.733758 43.003184-13.720063 62.559394-23.754139-159.418945-81.60366-235.391236-294.162254-215.425473-433.001104z" fill="#E54728" p-id="29513"></path><path d="M761.481946 84.015934c0 68.805094-27.849681 131.15971-73.003024 176.210665s-107.405571 73.003024-176.210664 73.003023c0-137.610188 111.6035-249.213688 249.213688-249.213688z" fill="#90BC42" p-id="29514"></path><path d="M512.268258 333.229622c-68.805094 0-131.15971-27.849681-176.210664-73.003023s-73.003024-107.405571-73.003024-176.210665c137.610188 0 249.213688 111.6035 249.213688 249.213688z" fill="#9AD14B" p-id="29515"></path><path d="M512.268258 333.229622c-68.805094 0-131.15971-27.849681-176.210664-73.003023s-73.003024-107.405571-73.003024-176.210665l249.213688 249.213688z" fill="#90BC42" p-id="29516"></path><path d="M512.268258 333.229622c68.805094 0 131.15971-27.849681 176.210664-73.003023 45.050954-45.050954 73.003024-107.405571 73.003024-176.210665l-249.213688 249.213688z" fill="#9AD14B" p-id="29517"></path><path d="M653.257267 808.824356c-3.276433 0-6.655255-1.126274-9.419745-3.276433-6.552866-5.221815-7.576751-14.743949-2.354936-21.296815 14.539172-18.12277 27.849681-38.498088 39.521973-60.306846 39.521974-74.026909 57.951909-161.978658 48.327388-229.55509-2.76449-19.249044-11.672293-34.504935-27.95207-48.224998-16.075-13.515286-38.805254-24.880413-67.371654-33.583439-11.87707-3.583599-24.778025-6.757643-38.190923-9.317356-8.191083-1.535828-13.617675-9.522134-11.979458-17.713217 1.535828-8.191083 9.522134-13.617675 17.713216-11.979458 14.539172 2.76449 28.464012 6.143312 41.364967 10.136465 32.457165 9.931688 58.771018 23.139808 78.020062 39.419585 22.013534 18.532324 34.607324 40.44347 38.3957 67.064489 10.546019 73.617355-9.112579 168.736302-51.501432 248.189802-12.593789 23.549362-26.928184 45.35812-42.59363 65.016718-3.174045 3.48121-7.474363 5.426592-11.979458 5.426593z" fill="#FFFFFF" p-id="29518"></path><path d="M556.704881 382.171341m-15.153503 0a15.153503 15.153503 0 1 0 30.307006 0 15.153503 15.153503 0 1 0-30.307006 0Z" fill="#FFFFFF" p-id="29519"></path><path d="M805.201849 483.331211c-10.034076-70.136145-64.811941-121.023245-158.292671-147.029933-12.696178-3.583599-25.289968-6.348089-37.371814-8.703025 97.781049-38.805254 167.098085-134.333755 167.098085-245.834866 0-8.39586-6.757643-15.153503-15.153503-15.153503-114.777545 0-212.660982 73.514966-249.1113 176.005887-13.003344-36.655095-34.095381-70.238533-62.354616-98.600157-49.965604-49.965604-116.313373-77.405731-186.96146-77.40573-8.39586 0-15.153503 6.757643-15.153503 15.153503 0 111.398723 69.317036 206.927224 167.098085 245.834866-12.081847 2.252548-24.675636 5.119427-37.371814 8.703025-93.48073 26.006687-148.258595 76.893788-158.292671 147.029933-12.081847 84.163374 9.010191 187.575792 56.518469 276.653815 54.675476 102.388532 137.303022 172.3199 232.626746 196.893148 1.228662 0.307166 2.559713 0.511943 3.788376 0.511942s2.559713-0.204777 3.788376-0.511942c95.323724-24.573248 177.951269-94.504615 232.626745-196.893148 47.508279-88.975635 68.600317-192.490441 56.51847-276.653815z m-209.179771-317.814005c40.545859-40.545859 93.275953-64.299998 149.896811-68.088374-7.781528 116.620538-101.262259 210.203657-217.882797 217.882797 3.583599-56.620858 27.440127-109.350953 67.985986-149.794423z m-317.302063-68.088374c116.620538 7.781528 210.203657 101.364647 217.882797 217.985186-56.620858-3.685987-109.350953-27.542515-149.896811-68.088374s-64.299998-93.275953-67.985986-149.896812z m443.239957 648.324188c-49.863215 93.48073-124.19729 157.575951-209.691714 180.818148-85.392036-23.344585-159.828499-87.337418-209.691715-180.818148-43.92468-82.32038-64.299998-181.125314-53.242036-258.121491 19.658598-136.688691 246.244421-139.248404 261.909866-139.248404H512.473035c2.457325 0 242.456045-1.842994 262.728974 139.248404 11.057962 76.893788-9.317356 175.80111-53.242037 258.121491z" fill="#333333" p-id="29520"></path><path d="M687.25026 498.382325m-15.153503 0a15.153503 15.153503 0 1 0 30.307006 0 15.153503 15.153503 0 1 0-30.307006 0Z" fill="#333333" p-id="29521"></path><path d="M424.828451 656.163054m-15.153503 0a15.153503 15.153503 0 1 0 30.307006 0 15.153503 15.153503 0 1 0-30.307006 0Z" fill="#333333" p-id="29522"></path><path d="M599.708065 656.163054m-15.153503 0a15.153503 15.153503 0 1 0 30.307006 0 15.153503 15.153503 0 1 0-30.307006 0Z" fill="#333333" p-id="29523"></path><path d="M337.388644 498.382325m-15.153502 0a15.153503 15.153503 0 1 0 30.307005 0 15.153503 15.153503 0 1 0-30.307005 0Z" fill="#333333" p-id="29524"></path><path d="M512.268258 498.382325m-15.153503 0a15.153503 15.153503 0 1 0 30.307006 0 15.153503 15.153503 0 1 0-30.307006 0Z" fill="#333333" p-id="29525"></path><path d="M512.268258 813.227063m-15.153503 0a15.153503 15.153503 0 1 0 30.307006 0 15.153503 15.153503 0 1 0-30.307006 0Z" fill="#333333" p-id="29526"></path></svg>

